<?xml version="1.0" standalone="no"?>
<!DOCTYPE svg PUBLIC "-//W3C//DTD SVG 20010904//EN"
 "http://www.w3.org/TR/2001/REC-SVG-20010904/DTD/svg10.dtd">
<svg version="1.0" xmlns="http://www.w3.org/2000/svg"
 width="310.000000pt" height="152.000000pt" viewBox="0 0 310.000000 152.000000"
 preserveAspectRatio="xMidYMid meet">

<g transform="translate(0.000000,152.000000) scale(0.100000,-0.100000)"
fill="#000000" stroke="none">
<path d="M2901 1448 c-33 -24 -131 -101 -218 -173 -200 -163 -398 -307 -487
-352 -64 -32 -253 -103 -275 -103 -5 0 -11 10 -13 23 -5 33 -31 27 -40 -10 -9
-34 -16 -38 -133 -63 -27 -6 -58 -13 -67 -16 -13 -4 -17 3 -20 28 -4 42 -18
40 -40 -5 -16 -32 -22 -36 -81 -46 -89 -15 -95 -15 -111 17 -36 69 -39 112
-16 233 12 63 24 178 27 259 5 124 3 147 -10 158 -13 11 -17 10 -27 -7 -18
-35 -41 -239 -44 -401 -2 -106 -9 -176 -21 -222 -20 -78 1 -70 -225 -92 -126
-13 -146 -13 -156 0 -14 18 -23 18 -45 -2 -12 -11 -65 -22 -161 -35 -79 -10
-146 -18 -150 -19 -5 0 -8 79 -8 175 0 149 -2 175 -15 175 -8 0 -15 -6 -15
-12 0 -7 -25 -97 -56 -199 -52 -173 -59 -187 -88 -204 -17 -11 -43 -32 -59
-48 -27 -29 -28 -29 -47 -12 -38 35 -53 117 -46 247 6 99 4 118 -8 118 -20 0
-65 -151 -111 -372 -8 -42 -32 -119 -51 -170 -20 -51 -38 -101 -41 -110 -9
-28 15 -21 30 10 26 50 86 246 114 371 l27 125 12 -80 c11 -79 34 -143 59
-164 10 -8 12 -27 8 -64 -5 -48 -3 -55 26 -89 71 -80 202 -98 621 -84 146 5
271 10 278 13 7 2 10 9 6 15 -5 8 -70 10 -238 5 -127 -4 -244 -10 -260 -12
-46 -7 -257 14 -309 32 -58 20 -97 63 -97 109 0 31 5 36 44 54 31 13 51 31 68
60 17 30 34 45 66 57 23 9 44 15 45 13 2 -2 9 -37 15 -77 15 -93 42 -147 81
-160 54 -19 134 13 195 77 l29 31 18 -30 c38 -62 126 -77 214 -36 64 30 167
137 200 208 14 29 25 58 25 65 0 10 32 20 85 26 6 0 31 -20 57 -47 64 -65 83
-61 125 23 l31 65 7 -40 c13 -83 45 -114 102 -99 40 10 115 92 133 144 l14 44
9 -34 c10 -42 40 -69 78 -69 33 0 91 47 117 94 l16 31 7 -63 c8 -84 30 -107
102 -107 77 0 209 73 357 195 113 95 297 346 392 537 43 86 49 105 38 118 -18
21 -22 20 -89 -27z m59 -8 c0 -52 -220 -389 -345 -528 -103 -114 -336 -262
-413 -262 -60 0 -72 20 -72 121 l0 89 73 36 c122 61 307 198 667 493 75 61 90
70 90 51z m-1564 -262 c-4 -57 -11 -119 -16 -138 -10 -38 -8 12 6 168 10 109
18 86 10 -30z m684 -343 c0 -16 -36 -74 -63 -102 -50 -53 -107 -41 -107 22 0
30 3 32 78 57 85 29 92 31 92 23z m-1530 -113 l0 -109 -37 -11 c-20 -6 -38
-10 -38 -9 -3 4 68 237 72 237 1 0 3 -49 3 -108z m849 -3 c1 -8 -49 -22 -56
-16 -2 3 2 26 8 53 l12 48 18 -39 c10 -22 18 -43 18 -46z m437 25 c-10 -40
-57 -104 -87 -120 -59 -30 -92 -10 -93 59 l-1 41 90 22 c50 12 92 22 94 23 2
1 0 -11 -3 -25z m-256 -39 c0 -18 -42 -85 -53 -85 -7 0 -28 16 -46 34 l-34 35
24 5 c13 3 33 7 44 9 31 7 65 8 65 2z m-290 -45 c0 -29 -50 -110 -102 -166
-67 -72 -125 -104 -187 -104 -53 0 -77 12 -97 52 -15 29 -15 33 9 77 14 25 28
62 32 82 l7 35 156 16 c86 8 163 16 170 17 6 0 12 -4 12 -9z m-425 -106 c-10
-74 -12 -78 -61 -123 -55 -50 -118 -78 -154 -66 -30 10 -59 79 -67 160 -3 36
-4 65 -2 66 4 1 268 36 284 38 7 1 7 -23 0 -75z m41 15 l-15 -34 6 40 c7 47
16 67 21 44 2 -9 -4 -32 -12 -50z m-516 -74 c-7 -8 -18 -15 -24 -15 -6 0 -2 7
8 15 25 19 32 19 16 0z"/>
</g>
</svg>
